<?xml version="1.0" ?><!DOCTYPE svg  PUBLIC '-//W3C//DTD SVG 1.1//EN'  'http://www.w3.org/Graphics/SVG/1.1/DTD/svg11.dtd'><svg height="32px" style="fill-rule:evenodd;clip-rule:evenodd;stroke-linejoin:round;stroke-miterlimit:2;" version="1.1" width="32px" xml:space="preserve" xmlns="http://www.w3.org/2000/svg" xmlns:serif="http://www.serif.com/" xmlns:xlink="http://www.w3.org/1999/xlink"><g id="Layer2"><path d="M24.5,29l0,-26c0,-0.276 -0.224,-0.5 -0.5,-0.5c-0.276,-0 -0.5,0.224 -0.5,0.5l0,0.506l-1,-0l0,-0.506c-0,-0.276 -0.224,-0.5 -0.5,-0.5c-0.276,0 -0.5,0.224 -0.5,0.5l0,0.506l-1,-0l0,-0.506c0,-0.276 -0.224,-0.5 -0.5,-0.5c-0.276,-0 -0.5,0.224 -0.5,0.5l0,0.506l-1,-0l0,-0.506c0,-0.276 -0.224,-0.5 -0.5,-0.5c-0.276,-0 -0.5,0.224 -0.5,0.5l0,0.506l-1,-0l0,-0.506c-0,-0.276 -0.224,-0.5 -0.5,-0.5c-0.276,0 -0.5,0.224 -0.5,0.5l0,0.506l-1,-0l0,-0.506c0,-0.276 -0.224,-0.5 -0.5,-0.5c-0.276,-0 -0.5,0.224 -0.5,0.5l0,0.506l-1,-0l0,-0.506c-0,-0.276 -0.224,-0.5 -0.5,-0.5c-0.276,0 -0.5,0.224 -0.5,0.5l0,0.506l-1,-0l0,-0.506c0,-0.276 -0.224,-0.5 -0.5,-0.5c-0.276,-0 -0.5,0.224 -0.5,0.5l0,0.506l-1,-0l0,-0.506c0,-0.275 -0.222,-0.498 -0.497,-0.5l-0.003,0c-0.276,-0 -0.5,0.224 -0.5,0.5l0,26c0,0.276 0.224,0.5 0.5,0.5c0.276,-0 0.5,-0.224 0.5,-0.5l0,-0.5l1,0l0,0.5c0,0.276 0.224,0.5 0.5,0.5c0.276,-0 0.5,-0.224 0.5,-0.5l0,-0.5l1,0l0,0.5c-0,0.276 0.224,0.5 0.5,0.5c0.276,-0 0.5,-0.224 0.5,-0.5l0,-0.5l1,0l0,0.5c0,0.276 0.224,0.5 0.5,0.5c0.276,-0 0.5,-0.224 0.5,-0.5l0,-0.5l1,0l0,0.5c-0,0.276 0.224,0.5 0.5,0.5c0.276,0 0.5,-0.224 0.5,-0.5l0,-0.5l1,0l0,0.5c0,0.276 0.224,0.5 0.5,0.5c0.276,-0 0.5,-0.224 0.5,-0.5l0,-0.5l1,0l0,0.5c0,0.276 0.224,0.5 0.5,0.5c0.276,-0 0.5,-0.224 0.5,-0.5l0,-0.5l1,0l0,0.5c-0,0.276 0.224,0.5 0.5,0.5c0.276,0 0.5,-0.224 0.5,-0.5l0,-0.5l1,0l0,0.5c0,0.276 0.224,0.5 0.5,0.5c0.276,-0 0.5,-0.224 0.5,-0.5Zm-1,-2.5l0,1c-0,-0 -15,0 -15,0c0,-0 0,-1 0,-1l15,0Zm0,-1l0,-18.994l-15,-0l0,18.994l15,0Zm-14,-12.5l0,11c0,0.276 0.224,0.5 0.5,0.5l12,0c0.276,0 0.5,-0.224 0.5,-0.5l0,-11c-0,-3.61 -2.89,-5.5 -6.5,-5.5c-3.61,-0 -6.5,1.89 -6.5,5.5Zm12,0c0,-3.013 -2.487,-4.5 -5.5,-4.5c-3.013,-0 -5.5,1.487 -5.5,4.5l0,10.5c0,0 11,-0 11,0l0,-10.5Zm-13,-7.5l0,-0.994l15,-0l0,0.994l-15,-0Z"/></g></svg>